<svg width="70" height="70" viewBox="0 0 70 70" fill="none" xmlns="http://www.w3.org/2000/svg">
<circle cx="35" cy="35" r="35" fill="#2299EF"/>
<path d="M31.5 36.7499C32.2515 37.7547 33.2104 38.586 34.3115 39.1876C35.4126 39.7892 36.6301 40.1469 37.8816 40.2365C39.1331 40.3262 40.3893 40.1456 41.5649 39.7071C42.7404 39.2685 43.808 38.5823 44.695 37.6949L49.945 32.4449C51.5389 30.7947 52.4208 28.5844 52.4009 26.2902C52.381 23.996 51.4607 21.8013 49.8384 20.179C48.2161 18.5567 46.0215 17.6365 43.7273 17.6165C41.433 17.5966 39.2228 18.4786 37.5725 20.0724L34.5625 23.0649" stroke="white" stroke-width="3" stroke-linecap="round" stroke-linejoin="round"/>
<path d="M38.4999 33.2499C37.7483 32.2452 36.7895 31.4138 35.6884 30.8123C34.5873 30.2107 33.3697 29.853 32.1182 29.7633C30.8667 29.6737 29.6106 29.8543 28.435 30.2928C27.2594 30.7313 26.1919 31.4175 25.3049 32.3049L20.0549 37.5549C18.461 39.2052 17.579 41.4154 17.599 43.7097C17.6189 46.0039 18.5391 48.1985 20.1614 49.8208C21.7838 51.4431 23.9784 52.3634 26.2726 52.3833C28.5668 52.4032 30.7771 51.5213 32.4274 49.9274L35.4199 46.9349" stroke="white" stroke-width="3" stroke-linecap="round" stroke-linejoin="round"/>
</svg>
