<svg width="70" height="70" viewBox="0 0 70 70" fill="none" xmlns="http://www.w3.org/2000/svg">
<circle cx="35" cy="35" r="35" fill="#2299EF"/>
<path d="M54.25 19.25C52.5742 20.4321 50.7187 21.3362 48.755 21.9275C47.701 20.7157 46.3003 19.8567 44.7423 19.4669C43.1843 19.077 41.5441 19.1751 40.0436 19.7478C38.5432 20.3205 37.2548 21.3402 36.3527 22.669C35.4507 23.9978 34.9785 25.5716 35 27.1775V28.9275C31.9246 29.0073 28.8772 28.3252 26.1293 26.9421C23.3813 25.5589 21.0181 23.5176 19.25 21C19.25 21 12.25 36.75 28 43.75C24.3959 46.1965 20.1025 47.4231 15.75 47.25C31.5 56 50.75 47.25 50.75 27.125C50.7484 26.6376 50.7015 26.1513 50.61 25.6725C52.3961 23.9111 53.6564 21.6873 54.25 19.25V19.25Z" stroke="white" stroke-width="3" stroke-linecap="round" stroke-linejoin="round"/>
</svg>
